<mxfile host="app.diagrams.net" modified="2024-04-16T05:49:58.194Z" agent="Mozilla/5.0 (Windows NT 10.0; Win64; x64) AppleWebKit/537.36 (KHTML, like Gecko) Chrome/123.0.0.0 Safari/537.36" version="24.2.5" etag="trTs4I3a9rbNYxLzQ60i" type="github">
  <diagram name="Sayfa -1" id="lTHlRNFt8CHduQSigQYl">
    <mxGraphModel>
      <root>
        <mxCell id="0" />
        <mxCell id="1" parent="0" />
      </root>
    </mxGraphModel>
  </diagram>
</mxfile>
